<svg width="64" height="64" viewBox="0 0 64 64" fill="none" xmlns="http://www.w3.org/2000/svg">
  <!-- Head -->
  <ellipse cx="32" cy="36" rx="18" ry="16" fill="#a00" stroke="#600" stroke-width="2"/>
  <!-- Eyes -->
  <ellipse cx="25" cy="38" rx="3" ry="5" fill="#fff"/>
  <ellipse cx="39" cy="38" rx="3" ry="5" fill="#fff"/>
  <ellipse cx="25" cy="40" rx="1.2" ry="2" fill="#000"/>
  <ellipse cx="39" cy="40" rx="1.2" ry="2" fill="#000"/>
  <!-- Smile -->
  <path d="M26 48 Q32 54 38 48" stroke="#fff" stroke-width="2" fill="none"/>
  <!-- Horns -->
  <path d="M18 22 Q14 10 28 18" stroke="#a00" stroke-width="4" fill="none"/>
  <path d="M46 22 Q50 10 36 18" stroke="#a00" stroke-width="4" fill="none"/>
  <polygon points="16,20 12,8 22,16" fill="#fff" stroke="#a00" stroke-width="1"/>
  <polygon points="48,20 52,8 42,16" fill="#fff" stroke="#a00" stroke-width="1"/>
  <!-- Cheek shadows -->
  <ellipse cx="22" cy="44" rx="2" ry="1" fill="#800" opacity="0.5"/>
  <ellipse cx="42" cy="44" rx="2" ry="1" fill="#800" opacity="0.5"/>
</svg>
